<svg width="275" height="214" viewBox="0 0 275 214" fill="none" xmlns="http://www.w3.org/2000/svg">
<path d="M259.722 0H15.2778C11.2259 0 7.3399 1.60962 4.47476 4.47476C1.60962 7.3399 0 11.2259 0 15.2778V198.611C0 202.663 1.60962 206.549 4.47476 209.414C7.3399 212.279 11.2259 213.889 15.2778 213.889H259.722C263.774 213.889 267.66 212.279 270.525 209.414C273.39 206.549 275 202.663 275 198.611V15.2778C275 11.2259 273.39 7.3399 270.525 4.47476C267.66 1.60962 263.774 0 259.722 0ZM187.153 53.4722C192.218 53.4722 197.075 55.4842 200.657 59.0657C204.238 62.6471 206.25 67.5045 206.25 72.5694C206.25 77.6343 204.238 82.4918 200.657 86.0732C197.075 89.6546 192.218 91.6667 187.153 91.6667C182.088 91.6667 177.23 89.6546 173.649 86.0732C170.068 82.4918 168.056 77.6343 168.056 72.5694C168.056 67.5045 170.068 62.6471 173.649 59.0657C177.23 55.4842 182.088 53.4722 187.153 53.4722ZM45.8333 168.056L96.4639 51.6542L154.046 144.879L203.408 120.358L229.167 168.056H45.8333Z" fill="#797979"/>
</svg>
