<svg width="31" height="30" viewBox="0 0 31 30" fill="none" xmlns="http://www.w3.org/2000/svg">
<path d="M15.6733 0C7.38906 0 0.67334 6.71573 0.67334 15C0.67334 23.2843 7.38906 30 15.6733 30C23.9576 30 30.6733 23.2843 30.6733 15C30.6733 6.71573 23.9576 0 15.6733 0ZM15.6733 5.08117C19.803 5.08117 23.1514 8.4296 23.1514 12.5592C23.1514 13.8101 22.8086 15.4615 22.104 16.3952L15.6733 24.9188L9.24267 16.3953C8.46694 15.3672 8.19529 13.9403 8.19529 12.5593C8.19531 8.4296 11.5437 5.08117 15.6733 5.08117ZM15.6733 9.41345C13.9358 9.41345 12.5276 10.8216 12.5276 12.5592C12.5276 14.2968 13.9358 15.705 15.6733 15.705C17.4109 15.705 18.8191 14.2968 18.8191 12.5592C18.8191 10.8216 17.4109 9.41345 15.6733 9.41345Z" fill="white"/>
</svg>
