<svg width="30" height="30" viewBox="0 0 30 30" fill="none" xmlns="http://www.w3.org/2000/svg">
<path d="M15 0C6.71572 0 0 6.71572 0 15C0 23.2843 6.71572 30 15 30C23.2843 30 30 23.2843 30 15C30 6.71572 23.2843 0 15 0ZM16.0291 6.50025C20.0424 6.50025 23.2947 9.7544 23.2947 13.7677C23.2947 17.781 20.0424 21.0333 16.0291 21.0333C14.8145 21.0333 13.6699 20.7362 12.6636 20.2094C12.6646 20.214 12.6662 20.2194 12.6672 20.224L9.38965 23.4998L6.70533 20.8136L9.86573 17.6514C9.87095 17.649 9.87698 17.6482 9.8822 17.6459C9.17253 16.5236 8.7616 15.1937 8.7616 13.7677C8.7616 9.75438 12.0157 6.50025 16.0291 6.50025ZM16.0291 9.7284C13.7987 9.7284 11.9897 11.5374 11.9897 13.7677C11.9897 15.998 13.7987 17.8052 16.0291 17.8052C18.2594 17.8052 20.0665 15.998 20.0665 13.7677C20.0665 11.5374 18.2594 9.7284 16.0291 9.7284Z" fill="white"/>
</svg>
