<svg width="30" height="31" viewBox="0 0 30 31" fill="none" xmlns="http://www.w3.org/2000/svg">
<path d="M15 0.800049C6.71573 0.800049 0 7.51577 0 15.8C0 24.0843 6.71573 30.8 15 30.8C23.2843 30.8 30 24.0843 30 15.8C30 7.51577 23.2843 0.800049 15 0.800049ZM9.60938 6.7583C9.91843 6.74007 10.1978 6.9248 10.4095 7.25267L12.4603 11.1418C12.6763 11.6027 12.5536 12.0961 12.2315 12.4254L11.2921 13.3647C11.2342 13.4442 11.196 13.5336 11.1951 13.632C11.5553 15.0264 12.648 16.3126 13.6121 17.1971C14.5762 18.0816 15.6123 19.2791 16.9574 19.5628C17.1237 19.6092 17.3273 19.6258 17.4463 19.5153L18.5376 18.4038C18.9143 18.1183 19.4593 17.9799 19.8615 18.2134H19.8798L23.5803 20.3978C24.1235 20.7383 24.1797 21.3964 23.7908 21.7968L21.2421 24.3254C20.8657 24.7114 20.3656 24.8412 19.8798 24.8418C17.7311 24.7774 15.7009 23.7228 14.0333 22.639C11.296 20.6477 8.78518 18.1779 7.20888 15.194C6.60433 13.9427 5.89415 12.3462 5.96193 10.9496C5.96798 10.4242 6.11012 9.9095 6.48012 9.57085L9.02895 7.02202C9.2275 6.85307 9.42393 6.76925 9.60938 6.7583V6.7583Z" fill="white"/>
</svg>
